<?xml version="1.0" encoding="UTF-8" standalone="no"?>
<!DOCTYPE svg PUBLIC "-//W3C//DTD SVG 1.1//EN"
 "http://www.w3.org/Graphics/SVG/1.1/DTD/svg11.dtd">
<!-- Generated by graphviz version 2.43.0 (0)
 -->
<!-- Title: structs Pages: 1 -->
<svg width="386pt" height="342pt"
 viewBox="0.00 0.00 386.00 342.00" xmlns="http://www.w3.org/2000/svg" xmlns:xlink="http://www.w3.org/1999/xlink">
<g id="graph0" class="graph" transform="scale(1 1) rotate(0) translate(4 338)">
<title>structs</title>
<polygon fill="white" stroke="transparent" points="-4,4 -4,-338 382,-338 382,4 -4,4"/>
<!-- jobs -->
<g id="node1" class="node">
<title>jobs</title>
<polygon fill="none" stroke="black" points="158.5,-177.5 158.5,-198.5 228.5,-198.5 228.5,-177.5 158.5,-177.5"/>
<text text-anchor="start" x="177" y="-185.3" font-family="Times,serif" font-weight="bold" font-size="14.00">jobs</text>
<polygon fill="none" stroke="black" points="158.5,-156.5 158.5,-177.5 182.5,-177.5 182.5,-156.5 158.5,-156.5"/>
<text text-anchor="start" x="161.5" y="-163.3" font-family="Times,serif" font-size="14.00">🔑</text>
<polygon fill="none" stroke="black" points="182.5,-156.5 182.5,-177.5 228.5,-177.5 228.5,-156.5 182.5,-156.5"/>
<text text-anchor="start" x="185.5" y="-163.3" font-family="Times,serif" font-size="14.00">name</text>
</g>
<!-- movies -->
<g id="node2" class="node">
<title>movies</title>
<polygon fill="none" stroke="black" points="156.5,-108.5 156.5,-129.5 231.5,-129.5 231.5,-108.5 156.5,-108.5"/>
<text text-anchor="start" x="166.5" y="-116.3" font-family="Times,serif" font-weight="bold" font-size="14.00">movies</text>
<polygon fill="none" stroke="black" points="156.5,-87.5 156.5,-108.5 180.5,-108.5 180.5,-87.5 156.5,-87.5"/>
<text text-anchor="start" x="159.5" y="-94.3" font-family="Times,serif" font-size="14.00">🔑</text>
<polygon fill="none" stroke="black" points="180.5,-87.5 180.5,-108.5 231.5,-108.5 231.5,-87.5 180.5,-87.5"/>
<text text-anchor="start" x="199" y="-94.3" font-family="Times,serif" font-size="14.00">id</text>
<polygon fill="none" stroke="black" points="156.5,-66.5 156.5,-87.5 180.5,-87.5 180.5,-66.5 156.5,-66.5"/>
<text text-anchor="start" x="163.5" y="-73.3" font-family="Times,serif" font-size="14.00"> </text>
<polygon fill="none" stroke="black" points="180.5,-66.5 180.5,-87.5 231.5,-87.5 231.5,-66.5 180.5,-66.5"/>
<text text-anchor="start" x="186" y="-73.3" font-family="Times,serif" font-size="14.00">name</text>
<polygon fill="none" stroke="black" points="156.5,-45.5 156.5,-66.5 180.5,-66.5 180.5,-45.5 156.5,-45.5"/>
<text text-anchor="start" x="163.5" y="-52.3" font-family="Times,serif" font-size="14.00"> </text>
<polygon fill="none" stroke="black" points="180.5,-45.5 180.5,-66.5 231.5,-66.5 231.5,-45.5 180.5,-45.5"/>
<text text-anchor="start" x="190" y="-52.3" font-family="Times,serif" font-size="14.00">year</text>
<polygon fill="none" stroke="black" points="156.5,-24.5 156.5,-45.5 180.5,-45.5 180.5,-24.5 156.5,-24.5"/>
<text text-anchor="start" x="163.5" y="-31.3" font-family="Times,serif" font-size="14.00"> </text>
<polygon fill="none" stroke="black" points="180.5,-24.5 180.5,-45.5 231.5,-45.5 231.5,-24.5 180.5,-24.5"/>
<text text-anchor="start" x="183.5" y="-31.3" font-family="Times,serif" font-size="14.00">studio</text>
</g>
<!-- studios -->
<g id="node5" class="node">
<title>studios</title>
<polygon fill="none" stroke="black" points="300,-45.5 300,-66.5 370,-66.5 370,-45.5 300,-45.5"/>
<text text-anchor="start" x="306" y="-53.3" font-family="Times,serif" font-weight="bold" font-size="14.00">studios</text>
<polygon fill="none" stroke="black" points="300,-24.5 300,-45.5 324,-45.5 324,-24.5 300,-24.5"/>
<text text-anchor="start" x="303" y="-31.3" font-family="Times,serif" font-size="14.00">🔑</text>
<polygon fill="none" stroke="black" points="324,-24.5 324,-45.5 370,-45.5 370,-24.5 324,-24.5"/>
<text text-anchor="start" x="340" y="-31.3" font-family="Times,serif" font-size="14.00">id</text>
<polygon fill="none" stroke="black" points="300,-3.5 300,-24.5 324,-24.5 324,-3.5 300,-3.5"/>
<text text-anchor="start" x="307" y="-10.3" font-family="Times,serif" font-size="14.00"> </text>
<polygon fill="none" stroke="black" points="324,-3.5 324,-24.5 370,-24.5 370,-3.5 324,-3.5"/>
<text text-anchor="start" x="327" y="-10.3" font-family="Times,serif" font-size="14.00">name</text>
</g>
<!-- movies&#45;&gt;studios -->
<g id="edge4" class="edge">
<title>movies:e&#45;&gt;studios:w</title>
<path fill="none" stroke="black" d="M232.5,-34.5C258.36,-34.5 267.25,-34.5 288.87,-34.5"/>
<polygon fill="black" stroke="black" points="289,-38 299,-34.5 289,-31 289,-38"/>
</g>
<!-- people -->
<g id="node3" class="node">
<title>people</title>
<polygon fill="none" stroke="black" points="139.5,-308.5 139.5,-329.5 248.5,-329.5 248.5,-308.5 139.5,-308.5"/>
<text text-anchor="start" x="168" y="-316.3" font-family="Times,serif" font-weight="bold" font-size="14.00">people</text>
<polygon fill="none" stroke="black" points="139.5,-287.5 139.5,-308.5 163.5,-308.5 163.5,-287.5 139.5,-287.5"/>
<text text-anchor="start" x="142.5" y="-294.3" font-family="Times,serif" font-size="14.00">🔑</text>
<polygon fill="none" stroke="black" points="163.5,-287.5 163.5,-308.5 248.5,-308.5 248.5,-287.5 163.5,-287.5"/>
<text text-anchor="start" x="199" y="-294.3" font-family="Times,serif" font-size="14.00">id</text>
<polygon fill="none" stroke="black" points="139.5,-266.5 139.5,-287.5 163.5,-287.5 163.5,-266.5 139.5,-266.5"/>
<text text-anchor="start" x="146.5" y="-273.3" font-family="Times,serif" font-size="14.00"> </text>
<polygon fill="none" stroke="black" points="163.5,-266.5 163.5,-287.5 248.5,-287.5 248.5,-266.5 163.5,-266.5"/>
<text text-anchor="start" x="186" y="-273.3" font-family="Times,serif" font-size="14.00">name</text>
<polygon fill="none" stroke="black" points="139.5,-245.5 139.5,-266.5 163.5,-266.5 163.5,-245.5 139.5,-245.5"/>
<text text-anchor="start" x="146.5" y="-252.3" font-family="Times,serif" font-size="14.00"> </text>
<polygon fill="none" stroke="black" points="163.5,-245.5 163.5,-266.5 248.5,-266.5 248.5,-245.5 163.5,-245.5"/>
<text text-anchor="start" x="169" y="-252.3" font-family="Times,serif" font-size="14.00">birth_year</text>
<polygon fill="none" stroke="black" points="139.5,-224.5 139.5,-245.5 163.5,-245.5 163.5,-224.5 139.5,-224.5"/>
<text text-anchor="start" x="146.5" y="-231.3" font-family="Times,serif" font-size="14.00"> </text>
<polygon fill="none" stroke="black" points="163.5,-224.5 163.5,-245.5 248.5,-245.5 248.5,-224.5 163.5,-224.5"/>
<text text-anchor="start" x="166.5" y="-231.3" font-family="Times,serif" font-size="14.00">death_year</text>
</g>
<!-- roles -->
<g id="node4" class="node">
<title>roles</title>
<polygon fill="none" stroke="black" points="8.5,-198.5 8.5,-219.5 87.5,-219.5 87.5,-198.5 8.5,-198.5"/>
<text text-anchor="start" x="28" y="-206.3" font-family="Times,serif" font-weight="bold" font-size="14.00">roles</text>
<polygon fill="none" stroke="black" points="8.5,-177.5 8.5,-198.5 32.5,-198.5 32.5,-177.5 8.5,-177.5"/>
<text text-anchor="start" x="11.5" y="-184.3" font-family="Times,serif" font-size="14.00">🔑</text>
<polygon fill="none" stroke="black" points="32.5,-177.5 32.5,-198.5 87.5,-198.5 87.5,-177.5 32.5,-177.5"/>
<text text-anchor="start" x="35.5" y="-184.3" font-family="Times,serif" font-size="14.00">person</text>
<polygon fill="none" stroke="black" points="8.5,-156.5 8.5,-177.5 32.5,-177.5 32.5,-156.5 8.5,-156.5"/>
<text text-anchor="start" x="11.5" y="-163.3" font-family="Times,serif" font-size="14.00">🔑</text>
<polygon fill="none" stroke="black" points="32.5,-156.5 32.5,-177.5 87.5,-177.5 87.5,-156.5 32.5,-156.5"/>
<text text-anchor="start" x="49" y="-163.3" font-family="Times,serif" font-size="14.00">job</text>
<polygon fill="none" stroke="black" points="8.5,-135.5 8.5,-156.5 32.5,-156.5 32.5,-135.5 8.5,-135.5"/>
<text text-anchor="start" x="11.5" y="-142.3" font-family="Times,serif" font-size="14.00">🔑</text>
<polygon fill="none" stroke="black" points="32.5,-135.5 32.5,-156.5 87.5,-156.5 87.5,-135.5 32.5,-135.5"/>
<text text-anchor="start" x="38.5" y="-142.3" font-family="Times,serif" font-size="14.00">movie</text>
</g>
<!-- roles&#45;&gt;jobs -->
<g id="edge2" class="edge">
<title>roles:e&#45;&gt;jobs:w</title>
<path fill="none" stroke="black" d="M88.5,-166.5C115.45,-166.5 124.64,-166.5 147.29,-166.5"/>
<polygon fill="black" stroke="black" points="147.5,-170 157.5,-166.5 147.5,-163 147.5,-170"/>
</g>
<!-- roles&#45;&gt;movies -->
<g id="edge1" class="edge">
<title>roles:e&#45;&gt;movies:w</title>
<path fill="none" stroke="black" d="M88.5,-145.5C121.04,-145.5 119.87,-107.89 145.3,-99.96"/>
<polygon fill="black" stroke="black" points="146.1,-103.38 155.5,-98.5 145.11,-96.45 146.1,-103.38"/>
</g>
<!-- roles&#45;&gt;people -->
<g id="edge3" class="edge">
<title>roles:e&#45;&gt;people:w</title>
<path fill="none" stroke="black" d="M88.5,-188.5C138.22,-188.5 92.71,-282.78 128.29,-296.77"/>
<polygon fill="black" stroke="black" points="128.06,-300.28 138.5,-298.5 129.22,-293.38 128.06,-300.28"/>
</g>
</g>
</svg>
